<svg xmlns="http://www.w3.org/2000/svg" viewBox="0 0 64 64" role="img" aria-label="Mindmap Studio">
  <defs>
    <linearGradient id="studioIconBg" x1="0%" y1="0%" x2="100%" y2="100%">
      <stop offset="0%" stop-color="#eef3ff" />
      <stop offset="100%" stop-color="#d6e4ff" />
    </linearGradient>
    <linearGradient id="studioIconAccent" x1="0%" y1="0%" x2="100%" y2="100%">
      <stop offset="0%" stop-color="#4567bf" />
      <stop offset="100%" stop-color="#7d9bde" />
    </linearGradient>
  </defs>
  <rect width="64" height="64" rx="18" fill="url(#studioIconBg)" />
  <path d="M18 18h28c4.418 0 8 3.582 8 8v12c0 4.418-3.582 8-8 8H30l-8 8v-8h-4c-4.418 0-8-3.582-8-8V26c0-4.418 3.582-8 8-8Z" fill="#ffffff" opacity="0.96" />
  <circle cx="24" cy="32" r="5" fill="url(#studioIconAccent)" />
  <circle cx="40" cy="24" r="4.5" fill="#86a2df" />
  <circle cx="42" cy="40" r="4.5" fill="#86a2df" />
  <path d="M28.5 30.5 35 26.5" fill="none" stroke="#4567bf" stroke-linecap="round" stroke-width="2.6" />
  <path d="M28.5 33.5 35.5 38" fill="none" stroke="#4567bf" stroke-linecap="round" stroke-width="2.6" />
</svg>
